<?xml version="1.0" encoding="UTF-8" standalone="no"?>
<svg width="28px" height="26px" viewBox="0 0 28 26" version="1.1" xmlns="http://www.w3.org/2000/svg" xmlns:xlink="http://www.w3.org/1999/xlink" xmlns:sketch="http://www.bohemiancoding.com/sketch/ns">
    <!-- Generator: Sketch 3.2.1 (9977) - http://www.bohemiancoding.com/sketch -->
    <title>linkedin</title>
    <desc>Created with Sketch.</desc>
    <defs></defs>
    <g id="Page-1" stroke="none" stroke-width="1" fill="none" fill-rule="evenodd" sketch:type="MSPage">
        <g id="linkedin" sketch:type="MSLayerGroup" fill="#505050">
            <path d="M10,8 L15.535,8 L15.535,10.837 L15.614,10.837 C16.384,9.456 18.269,8 21.078,8 C26.92,8 28,11.637 28,16.367 L28,26 L22.231,26 L22.231,17.46 C22.231,15.423 22.189,12.803 19.23,12.803 C16.225,12.803 15.767,15.021 15.767,17.312 L15.767,26 L10,26 L10,8 L10,8 Z" id="Shape" sketch:type="MSShapeGroup"></path>
            <path d="M0,8 L6,8 L6,26 L0,26 L0,8 L0,8 Z" id="Shape" sketch:type="MSShapeGroup"></path>
            <path d="M6,3 C6,4.657 4.657,6 3,6 C1.343,6 0,4.657 0,3 C0,1.343 1.343,0 3,0 C4.657,0 6,1.343 6,3 L6,3 Z" id="Shape" sketch:type="MSShapeGroup"></path>
        </g>
    </g>
</svg>