<?xml version="1.0" encoding="UTF-8" standalone="no"?>
<svg width="32px" height="26px" viewBox="0 0 32 26" version="1.1" xmlns="http://www.w3.org/2000/svg" xmlns:xlink="http://www.w3.org/1999/xlink" xmlns:sketch="http://www.bohemiancoding.com/sketch/ns">
    <!-- Generator: Sketch 3.2.1 (9977) - http://www.bohemiancoding.com/sketch -->
    <title>Shape</title>
    <desc>Created with Sketch.</desc>
    <defs></defs>
    <g id="Page-1" stroke="none" stroke-width="1" fill="none" fill-rule="evenodd" sketch:type="MSPage">
        <path d="M32.001,3.078 C30.824,3.6 29.558,3.953 28.23,4.112 C29.585,3.299 30.626,2.013 31.117,0.48 C29.848,1.232 28.443,1.779 26.948,2.073 C25.75,0.797 24.044,1.77635684e-15 22.156,1.77635684e-15 C18.53,1.77635684e-15 15.591,2.939 15.591,6.565 C15.591,7.08 15.649,7.581 15.761,8.061 C10.305,7.787 5.467,5.173 2.229,1.201 C1.664,2.171 1.34,3.298 1.34,4.502 C1.34,6.78 2.499,8.789 4.261,9.967 C3.185,9.933 2.173,9.638 1.287,9.146 C1.286,9.173 1.286,9.201 1.286,9.229 C1.286,12.41 3.549,15.063 6.552,15.666 C6.001,15.816 5.421,15.896 4.822,15.896 C4.399,15.896 3.988,15.855 3.587,15.778 C4.422,18.386 6.847,20.284 9.72,20.337 C7.473,22.098 4.642,23.147 1.566,23.147 C1.036,23.147 0.514,23.116 0,23.055 C2.905,24.918 6.356,26.005 10.064,26.005 C22.14,26.005 28.743,16.001 28.743,7.325 C28.743,7.04 28.737,6.757 28.724,6.476 C30.007,5.55 31.12,4.394 32,3.078 L32.001,3.078 Z" id="Shape" fill="#505050" sketch:type="MSShapeGroup"></path>
    </g>
</svg>