<?xml version="1.0" encoding="UTF-8" standalone="no"?>
<svg width="38px" height="38px" viewBox="0 0 38 38" version="1.1" xmlns="http://www.w3.org/2000/svg" xmlns:xlink="http://www.w3.org/1999/xlink" xmlns:sketch="http://www.bohemiancoding.com/sketch/ns">
    <!-- Generator: Sketch 3.2.1 (9977) - http://www.bohemiancoding.com/sketch -->
    <title>Rectangle 5 + cyz</title>
    <desc>Created with Sketch.</desc>
    <defs></defs>
    <g id="Page-1" stroke="none" stroke-width="1" fill="none" fill-rule="evenodd" sketch:type="MSPage">
        <g id="Desktop-HD" sketch:type="MSArtboardGroup" transform="translate(-195.000000, -10.000000)">
            <g id="Rectangle-5-+-cyz" sketch:type="MSLayerGroup" transform="translate(195.000000, 10.000000)">
                <rect id="Rectangle-5" fill="#DE5B49" sketch:type="MSShapeGroup" x="0" y="0" width="38" height="38" rx="19"></rect>
                <path d="M12.5345565,15.5195099 C12.5345565,15.5195099 9.18357023,15.5195099 8.54857116,15.5195099 C7.55295534,15.5195099 6.72590106,15.8785768 6.06738351,16.5967212 C5.40886596,17.3148656 5.08617214,17.8267514 5.08617214,18.9288163 C5.08617214,20.0308812 5.3971069,20.5871459 6.03210596,21.2972212 C6.67494452,22.0072966 7.49415943,22.362329 8.48977524,22.362329 C9.12477431,22.362329 11.6250174,22.3623291 11.6250174,22.3623291 L13.1153459,24.7951326 C13.1153459,24.7951326 9.68137784,24.7951319 8.60736708,24.7951319 C6.83564129,24.7951319 5.35399903,24.206101 4.16239584,23.0280213 C2.97079266,21.8418727 2.375,19.6487533 2.375,18.6102449 C2.375,17.5717365 2.97863203,16.0883803 4.18591421,14.8780246 C5.39319638,13.6676688 6.87483864,13.0625 8.63088544,13.0625 L11.2157184,13.0625 L12.5345565,15.5195099 Z M16.3662405,22.6605733 L11.2157183,13.0625 L14.2848651,13.0625 L17.7891017,19.8404584 L21.0581546,13.0625 L24.0449871,13.0625 L15.7029613,29.6875 L14.1076722,27.1065095 L16.3662405,22.6605733 Z M29.3988067,13.0625 L24.0448319,13.0625 L22.775176,15.6042344 L27.7851518,15.6042344 L23.0827663,24.8513062 L35.6670265,24.8513067 L34.3986468,22.4658315 L27.1876985,22.4658315 L30.7114819,15.5312829 L29.3988067,13.0625 Z" id="cyz" fill="#FFFFFF" sketch:type="MSShapeGroup"></path>
            </g>
        </g>
    </g>
</svg>