<?xml version="1.0" encoding="UTF-8" standalone="no"?>
<svg width="372px" height="181px" viewBox="0 0 372 181" version="1.1" xmlns="http://www.w3.org/2000/svg" xmlns:xlink="http://www.w3.org/1999/xlink" xmlns:sketch="http://www.bohemiancoding.com/sketch/ns">
    <!-- Generator: Sketch 3.2.1 (9977) - http://www.bohemiancoding.com/sketch -->
    <title>cyz</title>
    <desc>Created with Sketch.</desc>
    <defs></defs>
    <g id="Page-1" stroke="none" stroke-width="1" fill="none" fill-rule="evenodd" sketch:type="MSPage">
        <path d="M114.258791,27.3576597 C114.258791,27.3576597 76.8706816,27.3576601 69.7857781,27.3576601 C58.6773491,27.3576601 49.4496193,31.2453009 42.1023119,39.0206992 C34.7550045,46.7960974 31.1545983,52.3383196 31.1545983,64.2704508 C31.1545983,76.2025821 34.6238046,82.2252973 41.7087081,89.9133315 C48.8810796,97.6013658 58.0213428,101.445325 69.1297718,101.445325 C76.2146753,101.445325 104.11075,101.445327 104.11075,101.445327 L120.738859,127.785454 C120.738859,127.785454 82.4248928,127.785447 70.4417844,127.785447 C50.6740288,127.785447 34.1428352,121.407969 20.8477076,108.652821 C7.55257991,95.8103095 0.905115808,72.0652571 0.905115808,60.8212565 C0.905115808,49.577256 7.64004655,33.5168586 21.1101101,20.4122548 C34.5801736,7.30765101 51.1113672,0.755447388 70.7041869,0.755447388 L99.5440594,0.755447388 L114.258791,27.3576597 Z M157.010211,104.674436 L99.5440586,0.755447388 L133.787588,0.755447388 L172.885564,74.1408618 L209.359514,0.755447388 L242.684635,0.755447388 L149.609776,180.755447 L131.810585,152.810888 L157.010211,104.674436 Z M304.020392,0.755447388 L242.682903,0.755447388 L228.516914,28.2749782 L284.414942,28.2749778 L231.948805,128.39365 L371.886831,128.393655 L358.153999,102.565954 L277.748949,102.565954 L317.644456,26.3785849 L304.020392,0.755447388 Z" id="cyz" fill="#CFE05F" sketch:type="MSShapeGroup"></path>
    </g>
</svg>